<svg width="58" height="45" viewBox="0 0 58 45" fill="none" xmlns="http://www.w3.org/2000/svg">
<path fill-rule="evenodd" clip-rule="evenodd" d="M9 21H49C52.866 21 56 24.134 56 28V44H57V28C57 23.5817 53.4183 20 49 20H9C4.58172 20 1 23.5817 1 28V44H2V28C2 24.134 5.13401 21 9 21Z" fill="#5649CD"/>
<path d="M56 44H55.5V44.5H56V44ZM57 44V44.5H57.5V44H57ZM1 44H0.5V44.5H1V44ZM2 44V44.5H2.5V44H2ZM49 20.5H9V21.5H49V20.5ZM56.5 28C56.5 23.8579 53.1421 20.5 49 20.5V21.5C52.5899 21.5 55.5 24.4101 55.5 28H56.5ZM56.5 44V28H55.5V44H56.5ZM56 44.5H57V43.5H56V44.5ZM57.5 44V28H56.5V44H57.5ZM57.5 28C57.5 23.3056 53.6944 19.5 49 19.5V20.5C53.1421 20.5 56.5 23.8579 56.5 28H57.5ZM49 19.5H9V20.5H49V19.5ZM9 19.5C4.30558 19.5 0.5 23.3056 0.5 28H1.5C1.5 23.8579 4.85786 20.5 9 20.5V19.5ZM0.5 28V44H1.5V28H0.5ZM1 44.5H2V43.5H1V44.5ZM1.5 28V44H2.5V28H1.5ZM9 20.5C4.85787 20.5 1.5 23.8579 1.5 28H2.5C2.5 24.4101 5.41015 21.5 9 21.5V20.5Z" fill="#5649CD"/>
<path fill-rule="evenodd" clip-rule="evenodd" d="M4.67647 40H53.3235C54.8017 40 56 41.1983 56 42.6765C56 43.1579 55.8729 43.6097 55.6504 44H56.7546C56.9131 43.5893 57 43.143 57 42.6765C57 40.646 55.354 39 53.3235 39H4.67647C2.64601 39 1 40.646 1 42.6765C1 43.143 1.08692 43.5893 1.24544 44H2.34962C2.12712 43.6097 2 43.1579 2 42.6765C2 41.1983 3.1983 40 4.67647 40Z" fill="#5649CD"/>
<path d="M55.6504 44L55.216 43.7524L54.7898 44.5H55.6504V44ZM56.7546 44V44.5H57.0975L57.221 44.1801L56.7546 44ZM1.24544 44L0.778983 44.1801L0.902484 44.5H1.24544V44ZM2.34962 44V44.5H3.21017L2.784 43.7524L2.34962 44ZM53.3235 39.5H4.67647V40.5H53.3235V39.5ZM56.5 42.6765C56.5 40.9222 55.0778 39.5 53.3235 39.5V40.5C54.5256 40.5 55.5 41.4744 55.5 42.6765H56.5ZM56.0848 44.2476C56.3491 43.7838 56.5 43.247 56.5 42.6765H55.5C55.5 43.0688 55.3966 43.4355 55.216 43.7524L56.0848 44.2476ZM55.6504 44.5H56.7546V43.5H55.6504V44.5ZM57.221 44.1801C57.4014 43.7129 57.5 43.2056 57.5 42.6765H56.5C56.5 43.0805 56.4248 43.4658 56.2881 43.8199L57.221 44.1801ZM57.5 42.6765C57.5 40.3699 55.6301 38.5 53.3235 38.5V39.5C55.0778 39.5 56.5 40.9222 56.5 42.6765H57.5ZM53.3235 38.5H4.67647V39.5H53.3235V38.5ZM4.67647 38.5C2.36987 38.5 0.5 40.3699 0.5 42.6765H1.5C1.5 40.9222 2.92215 39.5 4.67647 39.5V38.5ZM0.5 42.6765C0.5 43.2056 0.598639 43.7129 0.778983 44.1801L1.71189 43.8199C1.57519 43.4658 1.5 43.0805 1.5 42.6765H0.5ZM1.24544 44.5H2.34962V43.5H1.24544V44.5ZM1.5 42.6765C1.5 43.247 1.65087 43.7838 1.91524 44.2476L2.784 43.7524C2.60337 43.4355 2.5 43.0688 2.5 42.6765H1.5ZM4.67647 39.5C2.92215 39.5 1.5 40.9222 1.5 42.6765H2.5C2.5 41.4744 3.47444 40.5 4.67647 40.5V39.5Z" fill="#5649CD"/>
<path fill-rule="evenodd" clip-rule="evenodd" d="M16 2H42C45.866 2 49 5.13401 49 9V20H50V9C50 4.58172 46.4183 1 42 1H16C11.5817 1 8 4.58173 8 9V20H9V9C9 5.13401 12.134 2 16 2Z" fill="#5649CD"/>
<path d="M49 20H48.5V20.5H49V20ZM50 20V20.5H50.5V20H50ZM8 20H7.5V20.5H8V20ZM9 20V20.5H9.5V20H9ZM42 1.5H16V2.5H42V1.5ZM49.5 9C49.5 4.85786 46.1421 1.5 42 1.5V2.5C45.5899 2.5 48.5 5.41015 48.5 9H49.5ZM49.5 20V9H48.5V20H49.5ZM49 20.5H50V19.5H49V20.5ZM50.5 20V9H49.5V20H50.5ZM50.5 9C50.5 4.30558 46.6944 0.5 42 0.5V1.5C46.1421 1.5 49.5 4.85786 49.5 9H50.5ZM42 0.5H16V1.5H42V0.5ZM16 0.5C11.3056 0.5 7.5 4.30558 7.5 9H8.5C8.5 4.85787 11.8579 1.5 16 1.5V0.5ZM7.5 9V20H8.5V9H7.5ZM8 20.5H9V19.5H8V20.5ZM8.5 9V20H9.5V9H8.5ZM16 1.5C11.8579 1.5 8.5 4.85787 8.5 9H9.5C9.5 5.41015 12.4102 2.5 16 2.5V1.5Z" fill="#5649CD"/>
<path fill-rule="evenodd" clip-rule="evenodd" d="M15.1471 14H23.8529C26.1433 14 28 15.8567 28 18.1471C28 18.813 27.843 19.4423 27.564 20H28.6564C28.8783 19.4251 29 18.8003 29 18.1471C29 15.3044 26.6956 13 23.8529 13H15.1471C12.3044 13 10 15.3044 10 18.1471C10 18.8003 10.1217 19.4251 10.3436 20H11.436C11.157 19.4423 11 18.813 11 18.1471C11 15.8567 12.8567 14 15.1471 14Z" fill="#5649CD"/>
<path d="M27.564 20L27.1169 19.7763L26.7548 20.5H27.564V20ZM28.6564 20V20.5H28.9993L29.1228 20.1801L28.6564 20ZM10.3436 20L9.87716 20.1801L10.0007 20.5H10.3436V20ZM11.436 20V20.5H12.2452L11.8831 19.7763L11.436 20ZM23.8529 13.5H15.1471V14.5H23.8529V13.5ZM28.5 18.1471C28.5 15.5806 26.4194 13.5 23.8529 13.5V14.5C25.8672 14.5 27.5 16.1328 27.5 18.1471H28.5ZM28.0112 20.2237C28.3241 19.5982 28.5 18.8924 28.5 18.1471H27.5C27.5 18.7336 27.3619 19.2865 27.1169 19.7763L28.0112 20.2237ZM27.564 20.5H28.6564V19.5H27.564V20.5ZM29.1228 20.1801C29.3666 19.5486 29.5 18.8628 29.5 18.1471H28.5C28.5 18.7377 28.39 19.3015 28.1899 19.8199L29.1228 20.1801ZM29.5 18.1471C29.5 15.0283 26.9717 12.5 23.8529 12.5V13.5C26.4194 13.5 28.5 15.5806 28.5 18.1471H29.5ZM23.8529 12.5H15.1471V13.5H23.8529V12.5ZM15.1471 12.5C12.0283 12.5 9.5 15.0283 9.5 18.1471H10.5C10.5 15.5806 12.5806 13.5 15.1471 13.5V12.5ZM9.5 18.1471C9.5 18.8628 9.63341 19.5486 9.87716 20.1801L10.8101 19.8199C10.61 19.3015 10.5 18.7377 10.5 18.1471H9.5ZM10.3436 20.5H11.436V19.5H10.3436V20.5ZM10.5 18.1471C10.5 18.8924 10.6759 19.5982 10.9888 20.2237L11.8831 19.7763C11.6381 19.2865 11.5 18.7336 11.5 18.1471H10.5ZM15.1471 13.5C12.5806 13.5 10.5 15.5806 10.5 18.1471H11.5C11.5 16.1328 13.1328 14.5 15.1471 14.5V13.5Z" fill="#5649CD"/>
<path fill-rule="evenodd" clip-rule="evenodd" d="M34.1471 14H42.8529C45.1433 14 47 15.8567 47 18.1471C47 18.813 46.843 19.4423 46.564 20H47.6564C47.8783 19.4251 48 18.8003 48 18.1471C48 15.3044 45.6956 13 42.8529 13H34.1471C31.3044 13 29 15.3044 29 18.1471C29 18.8003 29.1217 19.4251 29.3436 20H30.436C30.157 19.4423 30 18.813 30 18.1471C30 15.8567 31.8567 14 34.1471 14Z" fill="#5649CD"/>
<path d="M46.564 20L46.1169 19.7763L45.7548 20.5H46.564V20ZM47.6564 20V20.5H47.9993L48.1228 20.1801L47.6564 20ZM29.3436 20L28.8772 20.1801L29.0007 20.5H29.3436V20ZM30.436 20V20.5H31.2452L30.8831 19.7763L30.436 20ZM42.8529 13.5H34.1471V14.5H42.8529V13.5ZM47.5 18.1471C47.5 15.5806 45.4194 13.5 42.8529 13.5V14.5C44.8672 14.5 46.5 16.1328 46.5 18.1471H47.5ZM47.0112 20.2237C47.3241 19.5982 47.5 18.8924 47.5 18.1471H46.5C46.5 18.7336 46.3619 19.2865 46.1169 19.7763L47.0112 20.2237ZM46.564 20.5H47.6564V19.5H46.564V20.5ZM48.1228 20.1801C48.3666 19.5486 48.5 18.8628 48.5 18.1471H47.5C47.5 18.7377 47.39 19.3015 47.1899 19.8199L48.1228 20.1801ZM48.5 18.1471C48.5 15.0283 45.9717 12.5 42.8529 12.5V13.5C45.4194 13.5 47.5 15.5806 47.5 18.1471H48.5ZM42.8529 12.5H34.1471V13.5H42.8529V12.5ZM34.1471 12.5C31.0283 12.5 28.5 15.0283 28.5 18.1471H29.5C29.5 15.5806 31.5806 13.5 34.1471 13.5V12.5ZM28.5 18.1471C28.5 18.8628 28.6334 19.5486 28.8772 20.1801L29.8101 19.8199C29.61 19.3015 29.5 18.7377 29.5 18.1471H28.5ZM29.3436 20.5H30.436V19.5H29.3436V20.5ZM29.5 18.1471C29.5 18.8924 29.6759 19.5982 29.9888 20.2237L30.8831 19.7763C30.6381 19.2865 30.5 18.7336 30.5 18.1471H29.5ZM34.1471 13.5C31.5806 13.5 29.5 15.5806 29.5 18.1471H30.5C30.5 16.1328 32.1328 14.5 34.1471 14.5V13.5Z" fill="#5649CD"/>
</svg>
