<svg width="38" height="38" viewBox="0 0 38 38" fill="none" xmlns="http://www.w3.org/2000/svg">
<path d="M18.981 0C8.493 0 0 8.512 0 19C0 29.488 8.493 38 18.981 38C29.488 38 38 29.488 38 19C38 8.512 29.488 0 18.981 0ZM32.148 11.4H26.543C25.935 9.025 25.061 6.745 23.921 4.636C27.417 5.833 30.324 8.265 32.148 11.4ZM19 3.876C20.577 6.156 21.812 8.683 22.629 11.4H15.371C16.188 8.683 17.423 6.156 19 3.876ZM4.294 22.8C3.99 21.584 3.8 20.311 3.8 19C3.8 17.689 3.99 16.416 4.294 15.2H10.716C10.564 16.454 10.45 17.708 10.45 19C10.45 20.292 10.564 21.546 10.716 22.8H4.294ZM5.852 26.6H11.457C12.065 28.975 12.939 31.255 14.079 33.364C10.583 32.167 7.676 29.754 5.852 26.6ZM11.457 11.4H5.852C7.676 8.246 10.583 5.833 14.079 4.636C12.939 6.745 12.065 9.025 11.457 11.4ZM19 34.124C17.423 31.844 16.188 29.317 15.371 26.6H22.629C21.812 29.317 20.577 31.844 19 34.124ZM23.446 22.8H14.554C14.383 21.546 14.25 20.292 14.25 19C14.25 17.708 14.383 16.435 14.554 15.2H23.446C23.617 16.435 23.75 17.708 23.75 19C23.75 20.292 23.617 21.546 23.446 22.8ZM23.921 33.364C25.061 31.255 25.935 28.975 26.543 26.6H32.148C30.324 29.735 27.417 32.167 23.921 33.364ZM27.284 22.8C27.436 21.546 27.55 20.292 27.55 19C27.55 17.708 27.436 16.454 27.284 15.2H33.706C34.01 16.416 34.2 17.689 34.2 19C34.2 20.311 34.01 21.584 33.706 22.8H27.284Z" fill="white"/>
</svg>
