<svg width="34" height="35" viewBox="0 0 34 35" fill="none" xmlns="http://www.w3.org/2000/svg">
<path d="M23.9583 21.8333H22.4442L21.9075 21.3158C23.7858 19.1308 24.9167 16.2942 24.9167 13.2083C24.9167 6.3275 19.3392 0.75 12.4583 0.75C5.5775 0.75 0 6.3275 0 13.2083C0 20.0892 5.5775 25.6667 12.4583 25.6667C15.5442 25.6667 18.3808 24.5358 20.5658 22.6575L21.0833 23.1942V24.7083L30.6667 34.2725L33.5225 31.4167L23.9583 21.8333V21.8333ZM12.4583 21.8333C7.68583 21.8333 3.83333 17.9808 3.83333 13.2083C3.83333 8.43583 7.68583 4.58333 12.4583 4.58333C17.2308 4.58333 21.0833 8.43583 21.0833 13.2083C21.0833 17.9808 17.2308 21.8333 12.4583 21.8333Z" fill="#C2CFE0"/>
</svg>
